<svg xmlns="http://www.w3.org/2000/svg" viewBox="0 0 24 24" fill="none" stroke="currentColor">
  <path d="M12 15.5A3.5 3.5 0 1 0 12 8.5a3.5 3.5 0 0 0 0 7z" stroke-width="1.4"/>
  <path d="M19.4 15a1.65 1.65 0 0 0 .33 1.82l.06.06a2 2 0 0 1-2.83 2.83l-.06-.06a1.65 1.65 0 0 0-1.82-.33 1.65 1.65 0 0 0-1 1.51V21a2 2 0 0 1-4 0v-.09a1.65 1.65 0 0 0-1-1.51 1.65 1.65 0 0 0-1.82.33l-.06.06a2 2 0 0 1-2.83-2.83l.06-.06a1.65 1.65 0 0 0 .33-1.82 1.65 1.65 0 0 0-1.51-1H3a2 2 0 0 1 0-4h.09a1.65 1.65 0 0 0 1.51-1 1.65 1.65 0 0 0-.33-1.82L4.3 3.7A2 2 0 0 1 7.12.87l.06.06A1.65 1.65 0 0 0 9 .6h.09A1.65 1.65 0 0 0 10 .6V.51a2 2 0 0 1 4 0v.09c.29 0 .57.06.83.18A1.65 1.65 0 0 0 16.88.87l.06-.06a2 2 0 0 1 2.83 2.83l-.06.06c-.12.26-.18.54-.18.83v.09c0 .43.77.52 1.51 1a1.65 1.65 0 0 0 1.82.33z" stroke-width="0.9" opacity="0.7"/>
</svg>
