<svg xmlns="http://www.w3.org/2000/svg" viewBox="0 0 24 24" fill="none" stroke="currentColor">
  <path d="M23 3a10.9 10.9 0 0 1-3.14 1.53A4.48 4.48 0 0 0 22.43.36a9 9 0 0 1-2.83 1.08A4.52 4.52 0 0 0 12.07 4c0 .36.04.71.12 1.05A12.94 12.94 0 0 1 1.64 1.15 4.48 4.48 0 0 0 2.86 6.9a4.5 4.5 0 0 1-2.05-.57v.06a4.5 4.5 0 0 0 3.62 4.41 4.52 4.52 0 0 1-2.04.08 4.5 4.5 0 0 0 4.2 3.13A9.06 9.06 0 0 1 0 19.54 12.8 12.8 0 0 0 6.92 21c8.29 0 12.83-6.86 12.83-12.82 0-.2 0-.4-.01-.6A9.22 9.22 0 0 0 23 3z" stroke-width="0.6"/>
</svg>
